# This file uses centimeters as units for non-parametric coordinates.

mtllib mirrorL.mtl
g default
v -10.314175 -0.046705 -9.364230
v -10.063868 -0.046705 -9.762251
v -10.314175 5.231624 -9.364230
v -10.063868 5.231624 -9.762251
v -13.514766 5.231624 -11.377020
v -13.264458 5.231624 -11.775041
v -13.514766 -0.046705 -11.377020
v -13.264458 -0.046705 -11.775041
vt 0.375000 0.000000
vt 0.625000 0.000000
vt 0.375000 0.250000
vt 0.625000 0.250000
vt 0.375000 0.500000
vt 0.625000 0.500000
vt 0.375000 0.750000
vt 0.625000 0.750000
vt 0.375000 1.000000
vt 0.625000 1.000000
vt 0.875000 0.000000
vt 0.875000 0.250000
vt 0.125000 0.000000
vt 0.125000 0.250000
vn 0.846519 0.000000 0.532359
vn 0.846519 0.000000 0.532359
vn 0.846519 0.000000 0.532359
vn 0.846519 0.000000 0.532359
vn 0.000000 1.000000 0.000000
vn 0.000000 1.000000 0.000000
vn 0.000000 1.000000 0.000000
vn 0.000000 1.000000 0.000000
vn -0.846519 0.000000 -0.532359
vn -0.846519 0.000000 -0.532359
vn -0.846519 0.000000 -0.532359
vn -0.846519 0.000000 -0.532359
vn 0.000000 -1.000000 0.000000
vn 0.000000 -1.000000 0.000000
vn 0.000000 -1.000000 0.000000
vn 0.000000 -1.000000 0.000000
vn 0.532359 0.000000 -0.846518
vn 0.532359 0.000000 -0.846518
vn 0.532359 0.000000 -0.846518
vn 0.532359 0.000000 -0.846518
vn -0.532359 0.000000 0.846518
vn -0.532359 0.000000 0.846518
vn -0.532359 0.000000 0.846518
vn -0.532359 0.000000 0.846518
s off
g pCube3
usemtl initialShadingGroup
f 1/1/1 2/2/2 4/4/3 3/3/4
f 3/3/5 4/4/6 6/6/7 5/5/8
f 5/5/9 6/6/10 8/8/11 7/7/12
f 7/7/13 8/8/14 2/10/15 1/9/16
f 2/2/17 8/11/18 6/12/19 4/4/20
f 7/13/21 1/1/22 3/3/23 5/14/24
